<?xml version="1.0" encoding="utf-8"?>
<!-- Generator: Adobe Illustrator 24.0.3, SVG Export Plug-In . SVG Version: 6.00 Build 0)  -->
<svg version="1.1" id="Ebene_1" xmlns="http://www.w3.org/2000/svg" xmlns:xlink="http://www.w3.org/1999/xlink" x="0px" y="0px"
	 viewBox="0 0 595.3 307.8" style="enable-background:new 0 0 595.3 307.8;" xml:space="preserve">
<style type="text/css">
	.st0{fill:#4D917E;}
	.st1{fill:#FFFFFF;}
	.st2{fill:none;stroke:#FFFFFF;stroke-width:4;stroke-miterlimit:10;}
	.st3{fill:#4D917E;stroke:#FFFFFF;stroke-width:5;stroke-miterlimit:10;}
	.st4{enable-background:new    ;}
	.st5{fill:#DCDCDC;}
</style>
<g>
	<rect x="86" y="20.5" class="st0" width="87.6" height="107.6"/>
	<rect x="109" y="41.5" class="st1" width="14" height="19.7"/>
	<rect x="137.5" y="41.9" class="st1" width="14" height="19.7"/>
	<rect x="109.3" y="70.3" class="st1" width="14" height="19.7"/>
	<rect x="137.8" y="70.8" class="st1" width="14" height="19.7"/>
	
		<rect x="74" y="10" transform="matrix(0.9967 -8.072378e-02 8.072378e-02 0.9967 -1.1472 10.3268)" class="st1" width="106.3" height="18.7"/>
	<rect x="84.1" y="98.6" class="st1" width="50.4" height="33.1"/>
	<rect x="40.7" y="102.4" class="st0" width="90.1" height="129.8"/>
	<rect x="62.5" y="125.9" class="st1" width="14" height="19.7"/>
	<rect x="91.1" y="126.3" class="st1" width="14" height="19.7"/>
	<rect x="62.2" y="154" class="st1" width="14" height="19.7"/>
	<rect x="90.7" y="154.5" class="st1" width="14" height="19.7"/>
	<rect x="62.5" y="182.9" class="st1" width="14" height="19.7"/>
	<rect x="91.1" y="183.4" class="st1" width="14" height="19.7"/>
	<rect x="134.5" y="131.8" class="st0" width="87.6" height="100.3"/>
	<rect x="157.5" y="154.8" class="st1" width="14" height="19.7"/>
	<rect x="186.1" y="155.3" class="st1" width="14" height="19.7"/>
	<rect x="157.8" y="183.7" class="st1" width="14" height="19.7"/>
	<rect x="186.4" y="184.2" class="st1" width="14" height="19.7"/>
	<rect x="225.8" y="46" class="st0" width="77.4" height="107.6"/>
	<rect x="272.5" y="63" class="st1" width="14" height="19.7"/>
	<rect x="243.9" y="63.5" class="st1" width="14" height="19.7"/>
	<rect x="272.1" y="91.9" class="st1" width="14" height="19.7"/>
	<rect x="243.6" y="92.3" class="st1" width="14" height="19.7"/>
	
		<rect x="254.3" y="-21.5" transform="matrix(8.072387e-02 -0.9967 0.9967 8.072387e-02 219.4257 301.1929)" class="st1" width="37.4" height="106.3"/>
	<path class="st0" d="M225.9,155.2h0.1c7.5-0.1,17.9-0.1,30.3,0.6c2.6,0.2,13.2,0.8,27.1,2.5c7.6,0.9,14.2,2,19.5,2.9v-9.7
		l-77.4-10.2L225.9,155.2z"/>
	<path class="st0" d="M224,206c5.7,0.1,13.6,0.1,23.1,0c10.6-0.1,15.9-0.2,23.2-0.6c9.8-0.6,16.9-1.5,25-2.5
		c11.4-1.4,17.1-2.2,24.1-3.8c6.2-1.5,10.5-2.9,19-5.7c12.8-4.2,19.2-6.4,19.4-8.2c0.5-5.4-21-11.6-36-16c-11.5-3.3-23.1-6-34.8-8.1
		c-12.8-2.4-20.7-3.4-24.5-3.8c-1.6-0.2-8.3-0.6-21.6-1.5c-9.6-0.6-14.4-0.9-15.2,0.2c-2.1,2.7,1.4,11,22.7,33.8L224,206z"/>
	<rect x="225.7" y="157" class="st0" width="32.2" height="48.9"/>
	<rect x="222" y="126.8" class="st1" width="3.9" height="79.5"/>
	<path class="st2" d="M224.8,153.9c10.6-0.6,21.2-0.4,31.7,0.4c18.8,1.6,37.4,5.3,55.4,11c13.1,3.8,25.8,8.8,38.1,14.8
		c6.3,3.2,11.5,6.2,15.2,8.5"/>
	<path class="st0" d="M324.6,200.2c9-3,21.7-7.2,37.2-11.8c24.1-7.2,36.4-10.8,49.1-12.3c7.5-0.9,19.1-0.7,42.3-0.4
		c17,0.2,24.8,0.8,32.6,1.7c8.7,0.9,17.3,2.5,25.8,4.6c18.5,4.7,24.1,9.3,35.1,12.7c3.4,1,6.7,2.5,9.6,4.5c1,0.6,2,1.4,2.9,2.2
		c4.2,4.6,2.1,16.7-2.9,20.9c-8.1,6.9-25.2-5.8-44.7-13c-17-6.3-25.1-4.4-88.8,0.3c0,0-105.2,7.7-105.6,2.9
		c-0.1-0.9,9.6-1.8,10.5-6.3C327.8,204.8,327.3,202.8,324.6,200.2z"/>
	<rect x="226" y="199.2" class="st0" width="330.2" height="33.3"/>
	<rect x="556.3" y="196.4" class="st1" width="19.2" height="36.5"/>
	<path class="st2" d="M225.6,205.9c16.1,0.4,29.6,0.1,39.8-0.4c14.6-0.7,28.2-1.4,46.1-4.6c12.2-2.2,22.1-4,34.7-8.9
		c8.3-3.2,17.2-7.6,24.1-11c6.5-3.2,11.8-6,15.6-8"/>
	<path class="st0" d="M435.5,125.2l2.8-29.5l6.6-7l31.5,3.2l14.8,35.7l19.2,2.3l1.9-16.9l2.5-3.4l2.8-3l5.3-1.3l0.4,6.6l-2.7,1.5
		l-1.5,2.2l-1.7,15.4l22,2.8l2.3,1.5l1.9,2.5l-0.2,4.9c-2.5,10.6-4.9,21.1-7.4,31.7l-2.5-0.2v1.1l-0.8-3.6c0.8,2,1.5,3.9,2.3,5.9
		c-0.5-1.5-1-3-1.5-4.4l-2.5-3l0,0l-1.3,2l-3.4,1.3l-55-8.2l-19.7-2.6l3.4-6.8c-0.3,1.1-0.6,2.1-0.9,3.2c0.3-1.1,0.6-2.1,0.9-3.2
		l-4.2-3.4l-4.2-4.6l-6.8-0.9l-5.5,4.4l-10.4-7.1l-5.1-2.3l1.7-3.8l11.6-8.2L435.5,125.2z"/>
	<circle class="st3" cx="445.4" cy="159.4" r="20.1"/>
	<circle class="st3" cx="529.1" cy="176.3" r="14"/>
	
		<rect x="446.6" y="96.2" transform="matrix(8.559341e-02 -0.9963 0.9963 8.559341e-02 311.2112 556.8364)" class="st1" width="24.8" height="25.4"/>
</g>
<g class="st4">
	<path class="st5" d="M50.1,270.5c0.1,1.6,0.5,3.1,1.1,4.4c0.6,1.3,1.5,2.5,2.5,3.5s2.3,1.8,3.7,2.3c1.4,0.5,2.9,0.8,4.6,0.8
		c1.5,0,2.9-0.2,4.3-0.5c1.4-0.3,2.6-0.9,3.6-1.6c1.1-0.7,1.9-1.7,2.5-2.8c0.6-1.1,0.9-2.5,0.9-4.2c0-1.3-0.3-2.5-1-3.4
		c-0.7-0.9-1.6-1.7-2.7-2.4c-1.1-0.7-2.4-1.3-3.8-1.8c-1.4-0.5-2.8-1-4.3-1.4c-1.2-0.3-2.4-0.7-3.6-1.1c-1.2-0.4-2.4-0.9-3.5-1.4
		s-2.2-1.1-3.2-1.8c-1-0.7-1.8-1.5-2.5-2.4c-0.7-0.9-1.3-1.9-1.7-3.1c-0.4-1.1-0.6-2.5-0.6-4c0-1.9,0.4-3.5,1.1-4.9
		c0.7-1.4,1.8-2.6,3.1-3.6s2.9-1.7,4.7-2.2s3.9-0.8,6-0.8c2,0,3.7,0.2,5.2,0.6c1.5,0.4,2.8,0.9,3.9,1.6c1.1,0.7,2.1,1.4,2.8,2.3
		s1.4,1.8,1.9,2.8c0.5,1,0.9,2,1.1,3.1c0.2,1.1,0.4,2.1,0.5,3h-4.9c-0.1-1.5-0.5-2.8-1.1-4c-0.6-1.1-1.4-2.1-2.3-2.9s-2-1.4-3.2-1.7
		s-2.5-0.6-3.9-0.6c-1.3,0-2.5,0.1-3.7,0.4c-1.2,0.3-2.3,0.7-3.3,1.2c-1,0.6-1.7,1.3-2.3,2.2c-0.6,0.9-0.9,2.1-0.9,3.4
		c0,1.4,0.3,2.5,1,3.5c0.7,1,1.6,1.8,2.7,2.5c1.1,0.7,2.4,1.3,3.8,1.8c1.4,0.5,2.9,1,4.4,1.5c1.2,0.4,2.4,0.8,3.6,1.2
		c1.2,0.4,2.4,0.9,3.5,1.4c1.1,0.5,2.2,1.1,3.1,1.8c1,0.7,1.8,1.4,2.5,2.3c0.7,0.9,1.3,1.9,1.7,3c0.4,1.1,0.6,2.4,0.6,3.9
		c0,2.2-0.4,4.1-1.2,5.8s-1.9,3.1-3.4,4.2c-1.4,1.1-3.1,2-5.1,2.5c-2,0.6-4.1,0.9-6.5,0.9c-2.1,0-4.2-0.4-6.2-1.1
		c-2-0.7-3.8-1.7-5.3-3.1c-1.6-1.3-2.8-2.9-3.8-4.8c-1-1.9-1.5-4-1.5-6.4H50.1z"/>
	<path class="st5" d="M93.1,242.7v9.1h5.8v4.1h-5.8v21.5c0,0.7,0.1,1.3,0.3,1.8c0.2,0.5,0.4,0.9,0.7,1.2c0.3,0.3,0.7,0.5,1.1,0.6
		c0.4,0.1,0.9,0.2,1.4,0.2c0.6,0,1.2-0.1,1.9-0.2s1.2-0.2,1.7-0.3v3.9c-0.6,0.2-1.3,0.3-2.2,0.5c-0.9,0.2-1.8,0.3-2.8,0.3
		c-0.8,0-1.6-0.1-2.5-0.3c-0.8-0.2-1.6-0.6-2.2-1.1c-0.7-0.5-1.2-1.1-1.6-1.9c-0.4-0.8-0.6-1.7-0.6-2.9v-23.2h-5v-4.1h5v-9.1H93.1z"
		/>
	<path class="st5" d="M133.3,284.9c-0.3,0.1-0.7,0.2-1.2,0.3s-0.9,0.1-1.2,0.1c-1.3,0-2.5-0.5-3.4-1.5c-0.9-1-1.4-2.6-1.5-4.7
		c-1,1.3-2,2.4-3,3.2s-2,1.4-3,1.9c-1,0.4-2,0.7-3,0.9s-2,0.2-3,0.2c-1.3,0-2.6-0.2-3.7-0.6s-2.2-1-3-1.8s-1.6-1.8-2-2.9
		c-0.5-1.1-0.7-2.4-0.7-3.7s0.3-2.6,0.9-3.5c0.6-1,1.4-1.8,2.4-2.5s2.1-1.3,3.4-1.8c1.3-0.5,2.5-0.9,3.9-1.3
		c1.3-0.4,2.6-0.7,3.9-1.1c1.3-0.3,2.4-0.7,3.4-1.1c1-0.4,1.8-0.9,2.4-1.5c0.6-0.5,0.9-1.2,0.9-2c0-0.9-0.2-1.8-0.5-2.5
		c-0.4-0.7-0.9-1.3-1.5-1.9c-0.7-0.5-1.5-0.9-2.4-1.1c-0.9-0.3-2-0.4-3.1-0.4c-1,0-1.9,0.1-2.7,0.4c-0.9,0.2-1.6,0.6-2.3,1.1
		c-0.7,0.5-1.3,1.1-1.7,1.7s-0.7,1.5-0.9,2.4h-5c0.1-1.6,0.5-3,1.3-4.2c0.8-1.2,1.7-2.2,2.9-3.1c1.2-0.8,2.5-1.5,3.9-1.9
		c1.5-0.4,3-0.6,4.5-0.6c1.7,0,3.3,0.2,4.8,0.6c1.5,0.4,2.8,1,3.9,1.9c1.1,0.8,2,1.9,2.7,3.2c0.7,1.3,1,2.8,1,4.5v17
		c0,0.8,0.2,1.5,0.6,2c0.4,0.5,0.9,0.8,1.6,0.8c0.3,0,0.5,0,0.8-0.1V284.9z M125.5,266.4c-0.7,0.7-1.5,1.3-2.6,1.8
		c-1.1,0.5-2.2,0.9-3.4,1.2c-1.2,0.4-2.4,0.7-3.7,1.1s-2.3,0.8-3.3,1.2s-1.8,1-2.4,1.7c-0.6,0.7-0.9,1.5-0.9,2.6
		c0,0.9,0.2,1.7,0.5,2.4s0.7,1.2,1.3,1.6c0.5,0.4,1.1,0.7,1.8,0.9c0.7,0.2,1.3,0.3,2,0.3c2,0,3.9-0.6,5.8-1.8s3.6-3.1,5-5.5V266.4z"
		/>
	<path class="st5" d="M165,284.6h-4.8v-4.9c-1.1,1.8-2.5,3.2-4.1,4.2c-1.6,0.9-3.3,1.4-4.9,1.4c-2.2,0-4.1-0.5-5.8-1.4
		s-3.1-2.1-4.2-3.7s-2-3.4-2.6-5.4c-0.6-2.1-0.9-4.3-0.9-6.6s0.3-4.5,0.8-6.6c0.6-2.1,1.4-3.9,2.5-5.4c1.1-1.5,2.5-2.8,4.2-3.7
		c1.7-0.9,3.6-1.4,5.8-1.4c1.5,0,3.1,0.4,4.6,1.2c1.5,0.8,3,2.2,4.5,4.1v-17h4.8V284.6z M160.2,267.6c0-1.7-0.3-3.3-0.7-4.7
		c-0.4-1.5-1-2.8-1.7-3.9c-0.8-1.1-1.7-2-2.7-2.6c-1.1-0.7-2.3-1-3.7-1c-1.4,0-2.6,0.3-3.8,1c-1.1,0.7-2,1.6-2.8,2.8
		c-0.8,1.2-1.3,2.5-1.7,4.1c-0.4,1.5-0.6,3.2-0.6,4.9s0.2,3.4,0.6,4.9c0.4,1.5,1,2.9,1.7,4.1c0.8,1.2,1.7,2.1,2.8,2.8
		c1.1,0.7,2.4,1,3.8,1c1.4,0,2.6-0.3,3.7-1c1.1-0.7,2-1.6,2.8-2.7c0.8-1.1,1.3-2.5,1.7-4c0.4-1.5,0.6-3.1,0.6-4.9V267.6z"/>
	<path class="st5" d="M180.9,242.7v9.1h5.8v4.1h-5.8v21.5c0,0.7,0.1,1.3,0.3,1.8c0.2,0.5,0.4,0.9,0.7,1.2c0.3,0.3,0.7,0.5,1.1,0.6
		c0.4,0.1,0.9,0.2,1.4,0.2c0.6,0,1.2-0.1,1.9-0.2s1.2-0.2,1.7-0.3v3.9c-0.6,0.2-1.3,0.3-2.2,0.5c-0.9,0.2-1.8,0.3-2.8,0.3
		c-0.8,0-1.6-0.1-2.5-0.3c-0.8-0.2-1.6-0.6-2.2-1.1c-0.7-0.5-1.2-1.1-1.6-1.9c-0.4-0.8-0.6-1.7-0.6-2.9v-23.2h-5v-4.1h5v-9.1H180.9z
		"/>
	<path class="st5" d="M199.7,278.3v6.3h-6.1v-6.3H199.7z"/>
	<path class="st5" d="M228.5,239.6v40.6h22.6v4.4h-27.4v-45H228.5z"/>
	<path class="st5" d="M286,284.9c-0.3,0.1-0.7,0.2-1.2,0.3s-0.9,0.1-1.2,0.1c-1.3,0-2.5-0.5-3.4-1.5c-0.9-1-1.4-2.6-1.5-4.7
		c-1,1.3-2,2.4-3,3.2s-2,1.4-3,1.9c-1,0.4-2,0.7-3,0.9s-2,0.2-3,0.2c-1.3,0-2.6-0.2-3.7-0.6s-2.2-1-3-1.8s-1.6-1.8-2-2.9
		c-0.5-1.1-0.7-2.4-0.7-3.7s0.3-2.6,0.9-3.5c0.6-1,1.4-1.8,2.4-2.5s2.1-1.3,3.4-1.8c1.3-0.5,2.5-0.9,3.9-1.3
		c1.3-0.4,2.6-0.7,3.9-1.1c1.3-0.3,2.4-0.7,3.4-1.1c1-0.4,1.8-0.9,2.4-1.5c0.6-0.5,0.9-1.2,0.9-2c0-0.9-0.2-1.8-0.5-2.5
		c-0.4-0.7-0.9-1.3-1.5-1.9c-0.7-0.5-1.5-0.9-2.4-1.1c-0.9-0.3-2-0.4-3.1-0.4c-1,0-1.9,0.1-2.7,0.4c-0.9,0.2-1.6,0.6-2.3,1.1
		c-0.7,0.5-1.3,1.1-1.7,1.7s-0.7,1.5-0.9,2.4h-5c0.1-1.6,0.5-3,1.3-4.2c0.8-1.2,1.7-2.2,2.9-3.1c1.2-0.8,2.5-1.5,3.9-1.9
		c1.5-0.4,3-0.6,4.5-0.6c1.7,0,3.3,0.2,4.8,0.6c1.5,0.4,2.8,1,3.9,1.9c1.1,0.8,2,1.9,2.7,3.2c0.7,1.3,1,2.8,1,4.5v17
		c0,0.8,0.2,1.5,0.6,2c0.4,0.5,0.9,0.8,1.6,0.8c0.3,0,0.5,0,0.8-0.1V284.9z M278.2,266.4c-0.7,0.7-1.5,1.3-2.6,1.8
		c-1.1,0.5-2.2,0.9-3.4,1.2c-1.2,0.4-2.4,0.7-3.7,1.1s-2.3,0.8-3.3,1.2s-1.8,1-2.4,1.7c-0.6,0.7-0.9,1.5-0.9,2.6
		c0,0.9,0.2,1.7,0.5,2.4s0.7,1.2,1.3,1.6c0.5,0.4,1.1,0.7,1.8,0.9c0.7,0.2,1.3,0.3,2,0.3c2,0,3.9-0.6,5.8-1.8s3.6-3.1,5-5.5V266.4z"
		/>
	<path class="st5" d="M292.7,251.8h4.8v4.8c1.7-1.9,3.5-3.3,5.4-4.2s3.9-1.3,6-1.3c1.5,0,2.9,0.2,4.1,0.7s2.2,1.1,3.1,1.9
		s1.5,1.9,1.9,3c0.4,1.2,0.7,2.5,0.7,4v23.8h-4.8v-23.2c0-1.1-0.1-2.1-0.4-2.8c-0.3-0.8-0.7-1.4-1.2-1.9c-0.5-0.5-1.1-0.8-1.9-1
		s-1.5-0.3-2.4-0.3c-1.5,0-2.8,0.3-4.1,0.8s-2.4,1.2-3.3,2s-1.7,1.8-2.2,2.9c-0.5,1.1-0.8,2.3-0.8,3.4v20h-4.8V251.8z"/>
	<path class="st5" d="M353.2,284.6h-4.8v-4.9c-1.1,1.8-2.5,3.2-4.1,4.2c-1.6,0.9-3.3,1.4-4.9,1.4c-2.2,0-4.1-0.5-5.8-1.4
		s-3.1-2.1-4.2-3.7s-2-3.4-2.6-5.4c-0.6-2.1-0.9-4.3-0.9-6.6s0.3-4.5,0.8-6.6s1.4-3.9,2.5-5.4s2.5-2.8,4.2-3.7
		c1.7-0.9,3.6-1.4,5.8-1.4c1.5,0,3.1,0.4,4.6,1.2c1.5,0.8,3,2.2,4.5,4.1v-17h4.8V284.6z M348.5,267.6c0-1.7-0.3-3.3-0.7-4.7
		s-1-2.8-1.7-3.9c-0.8-1.1-1.7-2-2.7-2.6c-1.1-0.7-2.3-1-3.7-1c-1.4,0-2.6,0.3-3.8,1c-1.1,0.7-2,1.6-2.8,2.8s-1.3,2.5-1.7,4.1
		c-0.4,1.5-0.6,3.2-0.6,4.9s0.2,3.4,0.6,4.9c0.4,1.5,1,2.9,1.7,4.1s1.7,2.1,2.8,2.8c1.1,0.7,2.4,1,3.8,1s2.6-0.3,3.7-1
		c1.1-0.7,2-1.6,2.8-2.7s1.3-2.5,1.7-4c0.4-1.5,0.6-3.1,0.6-4.9V267.6z"/>
	<path class="st5" d="M368,278.3v6.3H362v-6.3H368z"/>
	<path class="st5" d="M422.1,239.6v4.4h-25.2v15.2h23.7v4.4h-23.7v16.7h26.3v4.4h-31.1v-45H422.1z"/>
	<path class="st5" d="M432.8,251.8h4.8l-0.2,5.4c1-1.8,2.2-3.1,3.6-4.1s3-1.4,4.8-1.4c0.2,0,0.4,0,0.6,0s0.5,0,0.8,0.1
		c0.3,0,0.6,0.1,0.8,0.1s0.5,0.1,0.6,0.2v4.9c-0.5-0.2-1.1-0.3-1.7-0.4c-0.6-0.1-1.1-0.1-1.4-0.1c-1.3,0-2.4,0.2-3.4,0.7
		s-1.8,1.1-2.5,1.9c-0.7,0.8-1.2,1.7-1.6,2.8c-0.4,1-0.5,2.1-0.5,3.3v19.5h-4.8V251.8z"/>
	<path class="st5" d="M454.1,251.8h4.8v4.8c1.7-1.9,3.5-3.3,5.4-4.2s3.9-1.3,6-1.3c1.5,0,2.9,0.2,4.1,0.7s2.2,1.1,3.1,1.9
		s1.5,1.9,1.9,3c0.4,1.2,0.7,2.5,0.7,4v23.8h-4.8v-23.2c0-1.1-0.1-2.1-0.4-2.8s-0.7-1.4-1.2-1.9s-1.1-0.8-1.9-1s-1.5-0.3-2.4-0.3
		c-1.5,0-2.8,0.3-4.1,0.8s-2.4,1.2-3.3,2s-1.7,1.8-2.2,2.9c-0.5,1.1-0.8,2.3-0.8,3.4v20h-4.8V251.8z"/>
	<path class="st5" d="M496,242.7v9.1h5.8v4.1H496v21.5c0,0.7,0.1,1.3,0.3,1.8c0.2,0.5,0.4,0.9,0.7,1.2c0.3,0.3,0.7,0.5,1.1,0.6
		s0.9,0.2,1.4,0.2c0.6,0,1.2-0.1,1.9-0.2s1.2-0.2,1.7-0.3v3.9c-0.6,0.2-1.3,0.3-2.2,0.5s-1.8,0.3-2.8,0.3c-0.8,0-1.6-0.1-2.5-0.3
		c-0.8-0.2-1.6-0.6-2.2-1.1c-0.7-0.5-1.2-1.1-1.6-1.9c-0.4-0.8-0.6-1.7-0.6-2.9v-23.2h-5v-4.1h5v-9.1H496z"/>
	<path class="st5" d="M512.4,269c0,1.5,0.3,3,0.8,4.4c0.5,1.4,1.2,2.7,2.1,3.9c0.9,1.1,1.9,2,3.1,2.7c1.2,0.7,2.5,1,3.8,1
		c4.6,0,7.7-2.2,9.2-6.5h4.4c-0.4,1.7-1,3.2-1.8,4.5c-0.9,1.3-1.9,2.4-3.1,3.4s-2.6,1.6-4.1,2.1s-3,0.7-4.6,0.7
		c-2.3,0-4.3-0.5-6.1-1.5c-1.8-1-3.4-2.3-4.7-3.9s-2.3-3.5-3-5.6s-1-4.3-1-6.7c0-2.2,0.3-4.3,1-6.3s1.7-3.8,2.9-5.3s2.8-2.7,4.6-3.6
		s3.9-1.4,6.1-1.4c2.2,0,4.2,0.4,5.9,1.2c1.8,0.8,3.2,1.9,4.5,3.4s2.2,3.1,2.9,5.1s1,4,1,6.3v1.9H512.4z M531.4,265.3
		c0-1.4-0.3-2.7-0.8-3.9s-1.1-2.3-1.9-3.2s-1.8-1.6-3-2.1s-2.5-0.8-4-0.8c-1.3,0-2.6,0.3-3.7,0.8s-2.1,1.3-3,2.2s-1.5,2-2,3.2
		c-0.5,1.2-0.7,2.4-0.8,3.7H531.4z"/>
	<path class="st5" d="M548.9,278.3v6.3h-6.1v-6.3H548.9z"/>
</g>
</svg>
