<svg id="Ebene_1" xmlns="http://www.w3.org/2000/svg" viewBox="0 0 201.73 205.53">
    <defs>
        <style>.cls-1{fill:#4d917e;}.cls-2{fill:#dcdcdc;}.cls-3{fill:#d6e188;}</style>
    </defs>
    <title>LOGOundSLOGAN</title>
    <circle class="cls-1" cx="101.96" cy="102.23" r="86.17"/>
    <path class="cls-2"
          d="M31.36,104.55a12.34,12.34,0,0,0,1.1,4.43,11.36,11.36,0,0,0,2.48,3.49,11,11,0,0,0,3.66,2.31,12.53,12.53,0,0,0,4.62.82,18.51,18.51,0,0,0,4.32-.5,10.9,10.9,0,0,0,3.64-1.58,7.88,7.88,0,0,0,2.51-2.8,8.58,8.58,0,0,0,.94-4.18,5.64,5.64,0,0,0-1-3.4,9,9,0,0,0-2.67-2.41A19.6,19.6,0,0,0,47.17,99c-1.41-.49-2.83-1-4.27-1.39-1.21-.34-2.41-.71-3.63-1.12a36.09,36.09,0,0,1-3.51-1.39A21.45,21.45,0,0,1,32.6,93.3,11.4,11.4,0,0,1,30.06,91a11,11,0,0,1-1.71-3.08,11.58,11.58,0,0,1-.63-4,10.74,10.74,0,0,1,1.09-5,10.12,10.12,0,0,1,3.08-3.59,14.42,14.42,0,0,1,4.74-2.21,23,23,0,0,1,6-.76,21.21,21.21,0,0,1,5.19.58,15.29,15.29,0,0,1,3.93,1.58,11.76,11.76,0,0,1,2.84,2.34,13.46,13.46,0,0,1,3,5.88,21.36,21.36,0,0,1,.45,3h-4.9a10.46,10.46,0,0,0-1.08-4,9.15,9.15,0,0,0-5.53-4.61,12.73,12.73,0,0,0-3.9-.58A18.34,18.34,0,0,0,39,77a11,11,0,0,0-3.26,1.24,7.1,7.1,0,0,0-2.32,2.24,6.2,6.2,0,0,0-.88,3.39,5.91,5.91,0,0,0,1,3.49,8.84,8.84,0,0,0,2.67,2.47A19,19,0,0,0,40,91.62c1.43.5,2.91,1,4.43,1.45,1.23.37,2.44.76,3.64,1.16a33.64,33.64,0,0,1,3.48,1.39,20.7,20.7,0,0,1,3.11,1.75,11.9,11.9,0,0,1,2.5,2.29,9.94,9.94,0,0,1,1.66,3,11.58,11.58,0,0,1,.6,3.88,13.22,13.22,0,0,1-1.21,5.79,11.71,11.71,0,0,1-3.37,4.17A15.06,15.06,0,0,1,49.7,119a23.35,23.35,0,0,1-6.48.86,18,18,0,0,1-6.16-1.08,17.11,17.11,0,0,1-5.33-3.07A15.26,15.26,0,0,1,28,110.93a14.74,14.74,0,0,1-1.53-6.38Z"/>
    <path class="cls-2" d="M73.25,112.34v6.26H67.16v-6.26Z"/>
    <path class="cls-2" d="M87,73.64v40.61h22.59v4.35H82.25v-45Z"/>
    <path class="cls-2" d="M123.14,112.34v6.26h-6.09v-6.26Z"/>
    <path class="cls-2" d="M162.1,73.64V78H136.9V93.2h23.72v4.35H136.9v16.7h26.33v4.35h-31.1v-45Z"/>
    <path class="cls-2" d="M178,112.34v6.26h-6.09v-6.26Z"/>
    <path class="cls-3"
          d="M32.19,123.39c-2.06,3.11-5,5.44-7.93,4.08a4,4,0,0,1-2.14-4.32c.41-4.67,4.86-8.36,7.42-9a2.8,2.8,0,0,1,2.94.7C35.09,116.25,34.1,120.51,32.19,123.39Zm-.2-8.08c-1-.49-3.95.76-6.29,3.78s-2.76,6.78-1.32,7.55,4.13-.79,6.27-4C33,119.15,33.16,115.86,32,115.31Z"/>
    <path class="cls-3"
          d="M38.14,128.86c-1.84-.16-2.19-1.54-1.36-3.39.91-2.06,3-4.17,2.68-4.4s-2.81,1.08-4.26,3.05a27.66,27.66,0,0,0-2.49,4c-.11.19-.27.22-.38.05-.32-.42-.46-1.05.11-2.33a78,78,0,0,1,8.16-11.5c.22-.24.44-.2.53.07a3.54,3.54,0,0,1-.89,3.06c-.6.83-1.92,2.5-3,3.89,1-.8,2.18-1.42,2.77-1.3a1.54,1.54,0,0,1,.65,2.37c-.57.92-1.76,2.43-2.36,3.53s-.64,2.26.17,2.29,2.25-1.44,3.05-2.78a.21.21,0,0,1,.4,0,1.67,1.67,0,0,1-.34,1.34A4.08,4.08,0,0,1,38.14,128.86Z"/>
    <path class="cls-3"
          d="M48.39,120.75a1.59,1.59,0,0,1,.65,2.39c-.54.93-1.76,2.46-2.36,3.55S46,129,46.83,129s2.1-1.32,3.07-2.78c.13-.19.28-.17.38,0a1.62,1.62,0,0,1-.32,1.36,4.11,4.11,0,0,1-3.45,2.07c-1.87-.17-2.19-1.56-1.38-3.42.91-2.08,3-4.23,2.66-4.44-.21-.11-1.53.39-3.07,1.8A21.71,21.71,0,0,0,41,128.87c-.1.19-.24.27-.42,0-.4-.48-.47-1.21,0-2.28a34.08,34.08,0,0,1,4.07-6.15c.17-.23.35-.2.46,0a2.6,2.6,0,0,1-.12,2.08C46.08,121.65,47.68,120.57,48.39,120.75Z"/>
    <path class="cls-3"
          d="M52.37,129.46c1.82.25,3.57-1.36,4.64-2.73.12-.16.3-.15.37.06a1.83,1.83,0,0,1-.49,1.33,5.63,5.63,0,0,1-4.51,2c-2.78-.2-3.51-3-1.84-5.73s4-3.65,5.05-2.92a4.1,4.1,0,0,1,1.2,1.26c.34.56.05,1.88-1,2.92-1.19,1.22-2.7,1.66-4.13.27C50.81,127.87,51.22,129.3,52.37,129.46Zm2.26-4.88c.79-.86,1.37-2,1.08-2.22s-2.36.74-3.57,2.73a3.65,3.65,0,0,0-.21.36C52.94,126.22,53.93,125.36,54.63,124.58Z"/>
    <path class="cls-3"
          d="M67.41,130.82c.9,0,2.21-1.33,3.11-2.77.13-.19.28-.18.35,0a2,2,0,0,1-.29,1.34c-.7,1.16-2.16,2.2-3.36,2a1.65,1.65,0,0,1-1.62-1.91A3.93,3.93,0,0,1,62.73,131c-2-.18-2.19-3-.16-5.47s3.79-3.23,4.89-3.13A1.32,1.32,0,0,1,68.65,124c1.38-2.16,3.3-5,4.19-6,.25-.29.44-.25.53,0,.24.75.09,1.69-1,3.25-1.22,1.8-3.64,5.23-4.94,7.46C66.76,129.91,66.66,130.8,67.41,130.82Zm-3.47-4.32c-1.35,1.78-1.76,3.67-.9,3.77s2.17-1.1,3.37-3c1.49-2.32,1.94-3.67,1.3-3.75S65.31,124.68,63.94,126.5Z"/>
    <path class="cls-3"
          d="M70.26,128.42a27.43,27.43,0,0,1,3.28-5.08c.22-.24.38-.3.53-.08a2.29,2.29,0,0,1-.23,2.38c-.54.93-1.59,2.34-2.15,3.4-.64,1.22-.67,2.08,0,2.1,1,0,2.32-1.3,3.11-2.76.13-.19.28-.15.35,0a1.56,1.56,0,0,1-.27,1.35,4,4,0,0,1-3.47,2C69.79,131.61,69.49,130.17,70.26,128.42Zm5.39-5.29c-.31.28-.92.16-1.2-.44a1.37,1.37,0,0,1,.26-1.61c.38-.34,1,0,1.22.6A1.32,1.32,0,0,1,75.65,123.13Z"/>
    <path class="cls-3"
          d="M81.63,125c.38,1-.6,2-1.14,3.19-.11.26-.21.32-.48.14-.5-.31-.75-1-.36-2,.31-.76,1-1.65.77-1.92s-2.11.92-3.28,2.83c-1.42,2.37-1.12,4.23.17,4.37,1.84.18,3.58-1.44,4.59-2.74.13-.16.33-.17.4.06a2,2,0,0,1-.51,1.28,5.51,5.51,0,0,1-4.44,2c-2.79-.2-3.49-3-1.82-5.7s4-3.63,5-2.88A2.89,2.89,0,0,1,81.63,125Z"/>
    <path class="cls-3"
          d="M86.66,133.11c-1.84-.17-2.18-1.54-1.36-3.39.91-2.07,3-4.18,2.68-4.41s-2.81,1.08-4.26,3.05a29.17,29.17,0,0,0-2.49,4c-.11.19-.26.22-.38.06-.32-.43-.46-1.06.11-2.33a76.38,76.38,0,0,1,8.17-11.5c.22-.25.43-.21.52.06a3.54,3.54,0,0,1-.89,3.06c-.6.83-1.92,2.51-3,3.89,1-.79,2.18-1.42,2.77-1.3a1.55,1.55,0,0,1,.65,2.38c-.57.92-1.76,2.43-2.36,3.52s-.64,2.27.17,2.29,2.25-1.44,3-2.78a.21.21,0,0,1,.4,0,1.67,1.67,0,0,1-.34,1.34A4.07,4.07,0,0,1,86.66,133.11Z"/>
    <path class="cls-3"
          d="M99,134.74c-1.46,2.83-3.32,6.18-5.16,6.73a1,1,0,0,1-1.23-.57,2.75,2.75,0,0,1-.2-2.76c.81-1.92,2.81-3.09,5-3.73.26-.47.51-1,.77-1.46a3.27,3.27,0,0,1-2.31.9c-2-.17-2.17-2.95-.17-5.42s3.8-3.23,4.91-3.13a1.29,1.29,0,0,1,1.17,1.56l.83-1.14c.2-.29.42-.3.56-.09A2.32,2.32,0,0,1,103,128c-.77,1.26-2.38,3.79-3.49,5.84a10.88,10.88,0,0,0,4.21-2.95c.15-.16.35-.14.37.08a2.09,2.09,0,0,1-.55,1.23A8.16,8.16,0,0,1,99,134.74Zm-5.89,5.43c.25.44,2.18-1.69,3.9-4.9C94.05,136.69,92.83,139.61,93.15,140.17Zm7.79-13.72c-.68-.11-2.4,1.16-3.78,3s-1.75,3.69-.88,3.79,2.09-1.19,3.38-3C101.25,127.89,101.57,126.55,100.94,126.45Z"/>
    <path class="cls-3"
          d="M106.09,134.16c1.81.25,3.56-1.36,4.63-2.73.13-.16.3-.15.38.06a1.78,1.78,0,0,1-.5,1.32,5.57,5.57,0,0,1-4.5,2c-2.79-.2-3.51-3-1.84-5.73s4-3.65,5-2.92a4.07,4.07,0,0,1,1.19,1.26c.35.56.06,1.88-1,2.92-1.19,1.22-2.71,1.66-4.13.27C104.53,132.57,104.93,134,106.09,134.16Zm2.26-4.88c.78-.86,1.36-2,1.08-2.22-.43-.42-2.36.74-3.58,2.73-.07.13-.15.25-.2.36C106.66,130.92,107.64,130.06,108.35,129.28Z"/>
    <path class="cls-3"
          d="M115.55,135.63c-1.84-.16-2.19-1.54-1.36-3.38.91-2.07,3-4.18,2.68-4.41s-2.81,1.08-4.27,3a30.18,30.18,0,0,0-2.49,4c-.1.19-.26.22-.38,0-.31-.42-.46-1,.12-2.33a77.31,77.31,0,0,1,8.16-11.5c.22-.24.44-.2.53.07a3.61,3.61,0,0,1-.89,3.06c-.6.83-1.92,2.51-3,3.89a4.63,4.63,0,0,1,2.76-1.3,1.55,1.55,0,0,1,.66,2.37c-.57.93-1.76,2.43-2.37,3.53s-.64,2.26.18,2.29,2.25-1.44,3-2.78a.21.21,0,0,1,.39,0,1.7,1.7,0,0,1-.33,1.34A4.05,4.05,0,0,1,115.55,135.63Z"/>
    <path class="cls-3"
          d="M120.45,126.54c-.19-.32,0-.47.28-.42a12.52,12.52,0,0,0,1.83.08,26.45,26.45,0,0,1,1.9-2.58c.22-.26.44-.22.52,0a3,3,0,0,1-.5,2.45,1.37,1.37,0,0,1,1.3.78c.14.27,0,.42-.3.39a6.41,6.41,0,0,0-1.71-.06,61.31,61.31,0,0,0-3.41,5.18c-.87,1.54-.75,2.92.17,3s2.37-1.32,3.32-2.89c.16-.25.4-.27.46,0a1.83,1.83,0,0,1-.32,1.23c-.34.61-2,2.41-3.71,2.19-1.44-.17-2.46-1.89-1.19-4.32.56-1,1.64-2.81,2.73-4.46A1.81,1.81,0,0,1,120.45,126.54Z"/>
    <path class="cls-3"
          d="M127.78,125.57c-.82.3-2,.84-2.63,1a1.71,1.71,0,0,1-1.14-.07c-.17-.11-.18-.22,0-.35a14.92,14.92,0,0,1,2.2-1.09,1.78,1.78,0,0,1,1.55.2C128,125.34,128,125.48,127.78,125.57Z"/>
    <path class="cls-3"
          d="M131,129.21a2.42,2.42,0,0,1,.94-1.62c.52-.39,1-.44,1.21-.22s.07.47-.26.95c-.1.12-.17.25-.27.39-.33,2-.07,3.75-.27,5.26a2.69,2.69,0,0,1-1.18,2.21,5.63,5.63,0,0,0,3.2-2.79c.13-.23.34-.14.42,0a2,2,0,0,1-.44,1.42,4.62,4.62,0,0,1-4.09,2.07,3.25,3.25,0,0,1-3.1-1.93,2.66,2.66,0,0,1,.55-3c.29-.19.45-.09.45.26,0,.18,0,.35,0,.53A42.6,42.6,0,0,0,131,129.21ZM128.26,134c.21,1.3.77,2.26,1.51,2.1,1-.22,1-3.69,1.08-5.45A39.77,39.77,0,0,1,128.26,134Z"/>
    <path class="cls-3"
          d="M145.89,129.28a1.59,1.59,0,0,1,.66,2.39c-.55.93-1.77,2.46-2.37,3.55s-.64,2.27.15,2.29,2.11-1.32,3.07-2.78c.13-.19.28-.17.38,0a1.65,1.65,0,0,1-.32,1.37,4.13,4.13,0,0,1-3.45,2.06c-1.86-.17-2.18-1.56-1.38-3.42.91-2.08,3-4.23,2.67-4.44s-1.54.39-3.08,1.8a22.28,22.28,0,0,0-3.69,5.29c-.1.19-.24.27-.42,0-.4-.47-.47-1.21,0-2.28a34.63,34.63,0,0,1,4.07-6.15c.18-.23.35-.19.46,0a2.56,2.56,0,0,1-.12,2.08C143.58,130.18,145.18,129.1,145.89,129.28Z"/>
    <path class="cls-3"
          d="M147.14,135.15a27.43,27.43,0,0,1,3.28-5.08c.22-.25.38-.3.53-.09a2.31,2.31,0,0,1-.23,2.39c-.54.92-1.59,2.33-2.15,3.39-.64,1.23-.67,2.08,0,2.1,1,0,2.32-1.3,3.11-2.75.13-.19.28-.15.35,0a1.53,1.53,0,0,1-.27,1.34,3.94,3.94,0,0,1-3.47,2C146.67,138.33,146.37,136.89,147.14,135.15Zm5.39-5.29c-.31.28-.92.16-1.2-.44a1.37,1.37,0,0,1,.26-1.61c.38-.34,1,0,1.22.59A1.33,1.33,0,0,1,152.53,129.86Z"/>
    <path class="cls-3"
          d="M158.51,131.73c.38,1-.6,2-1.14,3.19-.11.25-.21.31-.48.13-.5-.31-.75-1-.36-2,.31-.77,1.05-1.65.77-1.92s-2.11.92-3.28,2.83c-1.42,2.37-1.12,4.23.17,4.36,1.84.19,3.58-1.43,4.6-2.73.12-.17.32-.17.39.05a2,2,0,0,1-.51,1.29,5.47,5.47,0,0,1-4.44,2c-2.79-.2-3.49-3-1.82-5.7s4-3.63,5-2.87A2.89,2.89,0,0,1,158.51,131.73Z"/>
    <path class="cls-3"
          d="M163.54,139.83c-1.84-.16-2.18-1.54-1.36-3.39.91-2.06,3-4.17,2.68-4.4s-2.81,1.08-4.26,3.05a28.57,28.57,0,0,0-2.49,4c-.11.19-.26.22-.38.05-.32-.42-.46-1.05.11-2.33a77.4,77.4,0,0,1,8.17-11.5c.22-.24.43-.2.52.07a3.54,3.54,0,0,1-.89,3.06c-.6.83-1.92,2.5-3,3.89,1-.8,2.18-1.42,2.77-1.3a1.54,1.54,0,0,1,.65,2.37c-.57.92-1.76,2.43-2.36,3.53s-.64,2.26.17,2.29,2.25-1.44,3.05-2.78a.21.21,0,0,1,.4,0,1.67,1.67,0,0,1-.34,1.34A4.06,4.06,0,0,1,163.54,139.83Z"/>
    <path class="cls-3"
          d="M168.44,130.74c-.19-.33,0-.47.28-.42a12.52,12.52,0,0,0,1.83.08,30.32,30.32,0,0,1,1.9-2.58c.23-.26.44-.22.53.05a3,3,0,0,1-.5,2.45,1.37,1.37,0,0,1,1.3.78c.13.27,0,.42-.3.39a6.49,6.49,0,0,0-1.72-.06c-1,1.39-2.42,3.41-3.41,5.18-.86,1.53-.74,2.91.18,3s2.36-1.32,3.32-2.89c.15-.25.4-.28.46,0A1.86,1.86,0,0,1,172,138c-.34.61-2,2.41-3.7,2.19-1.45-.17-2.47-1.89-1.19-4.32.55-1.05,1.63-2.82,2.73-4.46A1.84,1.84,0,0,1,168.44,130.74Z"/>
    <path class="cls-3"
          d="M173.72,140.63c-.29.31-.92.12-1.18-.41a1.34,1.34,0,0,1,.25-1.59c.36-.32,1,0,1.2.61A1.4,1.4,0,0,1,173.72,140.63Zm6.83-13.2c.23.64.09,1.71-1,3.25-1.39,2.06-3.54,5.34-4.87,7.68-.12.21-.22.24-.38,0-.29-.38-.45-1.12.15-2.39a53.65,53.65,0,0,1,5.51-8.69C180.2,127.09,180.44,127.11,180.55,127.43Z"/>
</svg>