<svg id="Ebene_1" xmlns="http://www.w3.org/2000/svg" xmlns:xlink="http://www.w3.org/1999/xlink"
     viewBox="0 0 200.46 209.34">
    <defs>
        <style>
            .cls-1,.cls-6{fill:none;}.cls-2{fill:#d6e188;}.cls-3{clip-path:url(#clip-path);}.cls-4{fill:#fff;}.cls-5,.cls-7{fill:#4d917e;}.cls-6,.cls-7{stroke:#d6e188;stroke-miterlimit:10;}
        </style>
        <clipPath id="clip-path">
            <circle class="cls-1" cx="99.59" cy="99.91" r="86.17"/>
        </clipPath>
    </defs>
    <title>LOGOundSLOGAN</title>
    <circle class="cls-2" cx="99.75" cy="100.39" r="86.17"/>
    <g class="cls-3">
        <rect class="cls-4" x="23.9" y="137.97" width="5.55" height="7.83"/>
        <rect class="cls-5" x="39.55" y="87.16" width="30.79" height="42.8"
              transform="translate(109.89 217.12) rotate(180)"/>
        <rect class="cls-2" x="58.11" y="93.92" width="5.55" height="7.83"
              transform="translate(121.77 195.66) rotate(-180)"/>
        <rect class="cls-2" x="46.75" y="94.1" width="5.55" height="7.83"
              transform="translate(99.05 196.04) rotate(-180)"/>
        <rect class="cls-2" x="57.98" y="105.4" width="5.55" height="7.83"
              transform="translate(121.52 218.63) rotate(-180)"/>
        <rect class="cls-2" x="46.62" y="105.59" width="5.55" height="7.83"
              transform="translate(98.8 219.01) rotate(-180)"/>
        <rect class="cls-2" x="37.16" y="73.95" width="42.28" height="14.89"
              transform="translate(109.84 167.25) rotate(-175.37)"/>
        <path class="cls-5"
              d="M39.59,130.59h.06c3-.06,7.14,0,12.06.25,1,.06,5.25.32,10.79,1,3,.38,5.68.78,7.77,1.14v-3.85l-30.8-4.08Z"/>
        <path class="cls-5"
              d="M38.88,147.64c2.26,0,5.42,0,9.21,0,4.22,0,6.33-.07,9.22-.25,3.88-.24,6.72-.6,10-1a85.94,85.94,0,0,0,9.59-1.52,77.73,77.73,0,0,0,7.57-2.27c5.09-1.69,7.63-2.55,7.7-3.28.2-2.14-8.36-4.62-14.3-6.35A139.48,139.48,0,0,0,64,129.76c-5.09-1-8.25-1.35-9.76-1.52-.64-.07-3.3-.24-8.58-.59-3.81-.24-5.72-.36-6.06.09-.82,1.09.54,4.37,9.05,13.46Z"/>
        <rect class="cls-5" x="14.17" y="127.18" width="38.21" height="19.46"/>
        <path class="cls-6"
              d="M38,126.55a133.11,133.11,0,0,1,13.83.76,141.45,141.45,0,0,1,22,4.38c9,2.32,12.63,3.88,15.91,5.75a49.54,49.54,0,0,1,5.3,3.5"/>
        <path class="cls-5"
              d="M78.9,144.35c3.56-1.2,8.64-2.87,14.81-4.71,9.6-2.87,14.5-4.31,19.52-4.88,3-.34,7.61-.28,16.83-.17a111.76,111.76,0,0,1,13,.67,75.77,75.77,0,0,1,10.27,1.86c7.34,1.88,9.59,3.7,14,5a14,14,0,0,1,3.82,1.81,6.47,6.47,0,0,1,1.14.89c1.68,1.84.85,6.65-1.14,8.33-3.22,2.73-10-2.33-17.79-5.18-6.78-2.49-10-1.73-35.34.13,0,0-41.87,3.07-42,1.13,0-.36,3.81-.71,4.17-2.52C80.19,146.18,80,145.4,78.9,144.35Z"/>
        <rect class="cls-5" x="14.06" y="143.97" width="157.02" height="55.08"/>
        <path class="cls-6"
              d="M22.2,149c2.77.35,6.42.73,10.74.94a151.88,151.88,0,0,0,15.82-.17,133.83,133.83,0,0,0,18.34-1.85,67.38,67.38,0,0,0,13.8-3.54c3.31-1.29,6.86-3,9.59-4.37s4.71-2.38,6.23-3.2"/>
        <path class="cls-5"
              d="M123.05,114.51l1.09-11.75,2.61-2.78,12.54,1.26,5.89,14.22,7.66.93.75-6.73,1-1.35,1.1-1.18,2.1-.5.17,2.61-1.09.59-.59.84-.68,6.14,8.75,1.09.93.59.76,1-.09,1.94L163,134l-1-.08v.42l-.34-1.43.93,2.36-.59-1.77-1-1.18h0l-.51.76-1.34.5-21.88-3.26-7.83-1,1.35-2.69-.34,1.26.34-1.26-1.68-1.35-1.69-1.85-2.69-.34-2.19,1.77L118.42,122l-2-.93.67-1.51,4.63-3.29Z"/>
        <circle class="cls-7" cx="126.98" cy="128.13" r="7.99"/>
        <circle class="cls-7" cx="160.28" cy="134.83" r="5.56"/>
        <rect class="cls-2" x="127.34" y="103.08" width="10.1" height="9.85"
              transform="translate(9.72 -10.93) rotate(4.91)"/>
    </g>
    <path class="cls-4"
          d="M53.28,64.29a9.13,9.13,0,0,0,.8,3.22,8.16,8.16,0,0,0,1.81,2.54,7.93,7.93,0,0,0,2.66,1.68,9.13,9.13,0,0,0,3.36.6A12.92,12.92,0,0,0,65.05,72a8,8,0,0,0,2.65-1.14,6,6,0,0,0,1.83-2,6.35,6.35,0,0,0,.68-3,4.11,4.11,0,0,0-.74-2.47,6.53,6.53,0,0,0-2-1.76,14.48,14.48,0,0,0-2.74-1.28c-1-.36-2.06-.69-3.1-1-.88-.25-1.76-.53-2.64-.82s-1.74-.64-2.56-1a16.34,16.34,0,0,1-2.29-1.29,8.63,8.63,0,0,1-1.85-1.71,7.89,7.89,0,0,1-1.25-2.24,8.57,8.57,0,0,1-.45-2.9,7.81,7.81,0,0,1,.79-3.59,7.42,7.42,0,0,1,2.24-2.62,10.57,10.57,0,0,1,3.45-1.6,16.39,16.39,0,0,1,4.39-.55,15.24,15.24,0,0,1,3.77.42,10.49,10.49,0,0,1,2.86,1.15,8.3,8.3,0,0,1,2.07,1.7,10,10,0,0,1,1.38,2,10.18,10.18,0,0,1,.8,2.22,13.86,13.86,0,0,1,.32,2.21H69.15a7.55,7.55,0,0,0-.78-2.89,6.7,6.7,0,0,0-1.67-2.08,6.93,6.93,0,0,0-2.35-1.27A9.43,9.43,0,0,0,61.51,44a13.62,13.62,0,0,0-2.71.28,7.58,7.58,0,0,0-2.36.91,5,5,0,0,0-1.69,1.62,4.51,4.51,0,0,0-.64,2.46,4.4,4.4,0,0,0,.72,2.55,6.49,6.49,0,0,0,2,1.79,14.19,14.19,0,0,0,2.77,1.29c1,.36,2.12.71,3.23,1,.89.27,1.77.55,2.65.85a26.66,26.66,0,0,1,2.53,1,15.9,15.9,0,0,1,2.26,1.27A8.48,8.48,0,0,1,72,60.74a7.12,7.12,0,0,1,1.21,2.18,8.43,8.43,0,0,1,.44,2.82A9.62,9.62,0,0,1,72.8,70a8.53,8.53,0,0,1-2.45,3,10.77,10.77,0,0,1-3.73,1.84,16.77,16.77,0,0,1-4.71.62,13.25,13.25,0,0,1-4.48-.78,12.56,12.56,0,0,1-3.88-2.23,11.25,11.25,0,0,1-2.74-3.5,10.94,10.94,0,0,1-1.11-4.64Z"/>
    <path class="cls-4" d="M83.75,70v4.55H79.32V70Z"/>
    <path class="cls-4" d="M93.76,41.81V71.34h16.43v3.17H90.29V41.81Z"/>
    <path class="cls-4" d="M120,70v4.55h-4.42V70Z"/>
    <path class="cls-4" d="M148.37,41.81V45H130V56h17.25V59.2H130V71.34h19.15v3.17H126.57V41.81Z"/>
    <path class="cls-4" d="M159.9,70v4.55h-4.43V70Z"/>
</svg>