<svg xmlns="http://www.w3.org/2000/svg" viewBox="0 0 346.41 346.41">
    <defs>
        <style>.cls-1{fill:#d6e188;}.cls-2{fill:#fff;}</style>
    </defs>
    <title>Ohne dich geht&amp;apos;s nicht</title>
    <g id="Ebene_7">
        <circle class="cls-1" cx="173.2" cy="173.2" r="173.2"/>
    </g>
    <g id="ohne_dich">
        <path class="cls-2"
              d="M306.66,276.16a9.3,9.3,0,0,1-.4,2.88c-1.16,4.76-2.67,9.36-5.31,12.68a7,7,0,0,1-5.56,2.44,7.45,7.45,0,0,1-2.4-.36,5.47,5.47,0,0,1-2.28-1.92,7.16,7.16,0,0,1-1.28-4.56c0-5.52,1.88-9.72,4.84-14A15.68,15.68,0,0,1,299,268.4a2,2,0,0,1,1-.44,2.24,2.24,0,0,1,.88.24,8.29,8.29,0,0,0,2.08.64,1.21,1.21,0,0,1,.88.32A9,9,0,0,1,306.66,276.16Zm-5.79-5.2c-.12,0-.52,0-1.64,1.2a25.23,25.23,0,0,0-5.88,9.88,7.45,7.45,0,0,0-.48,2.48c0,.28-.2,1.88-.2,2.76a5.25,5.25,0,0,0,1.36,3.84,2.61,2.61,0,0,0,1.32.36,3.63,3.63,0,0,0,2.76-1.48,31.57,31.57,0,0,0,5-14.44,9.89,9.89,0,0,0,0-1.32c-.2-1.24-.68-2.24-1.68-2.56a.31.31,0,0,1-.24-.32C301.15,271.12,301,271,300.87,271Z"
              transform="translate(-275.88 -110.09)"/>
        <path class="cls-2"
              d="M319.91,294.56a3.17,3.17,0,0,1-1.16-.28c-1.52-.56-2.16-1.84-2.16-3.8a16.09,16.09,0,0,1,.76-4.48,38.32,38.32,0,0,1,1.48-4.12,1.51,1.51,0,0,0,.16-.48.09.09,0,0,0-.08-.08c-.08,0-.24.12-.52.44-2.72,3.12-5.48,7.76-7.84,10.52a1.33,1.33,0,0,1-.44.4,3.13,3.13,0,0,1-1.52.52,5.06,5.06,0,0,1-2.08-1.12.67.67,0,0,1-.16-.44c0-.44.2-.4.36-1.08,1.24-5.32,4.16-11.08,7.56-17.84,1.68-3.36,3.92-7,5.88-11a1,1,0,0,1,1-.56c.39,0,.64.08.83.08a1.89,1.89,0,0,1,1.13.6,1.17,1.17,0,0,1,.35,1c0,1-.83,1.67-1.87,2.95-.36.44-.44.64-.76,1.08-3.6,5-6.76,13.12-9.76,19.48a5.52,5.52,0,0,0-.36.8s0,.08.08.08.08,0,.28-.32a111.83,111.83,0,0,1,9.08-11.12c.56-.6.76-.8,1.12-.92a3.41,3.41,0,0,1,.92-.2,5.64,5.64,0,0,1,1.47.28,1,1,0,0,1,.6.76,6.12,6.12,0,0,1-1.2,3.2,16.4,16.4,0,0,0-1,2.44A24.19,24.19,0,0,0,320,290c0,1.92.4,2.32,1,2.64a6.25,6.25,0,0,0,1,.24.38.38,0,0,1,.29.32,1.53,1.53,0,0,1-.21.52,1.22,1.22,0,0,1-.75.56A5.48,5.48,0,0,1,319.91,294.56Z"
              transform="translate(-275.88 -110.09)"/>
        <path class="cls-2"
              d="M330.15,275.2c.32-.48.28-.56.64-.88a2.09,2.09,0,0,1,1.4-.4c.92,0,1.44.24,1.6.6a2.43,2.43,0,0,1,.2.72,2.88,2.88,0,0,1-.88,1.88,18.51,18.51,0,0,0-2.56,3.6,62,62,0,0,0-2.84,6.24,26.33,26.33,0,0,0-.8,2.8c0,.16,0,.4.12.4s.4-.12.68-.52c5.4-7.68,8.36-9.28,9.23-11.16.73-1.52.88-1.64,1.4-1.64s.8.36,1.44.4a1.09,1.09,0,0,1,.8,1.08,3.16,3.16,0,0,1-.4,1,23,23,0,0,0-2.8,5.92,19.31,19.31,0,0,0-.47,3.6,7.34,7.34,0,0,0,.32,1.72c.11.72,1.11,1.24,1.4,1.44a1.21,1.21,0,0,1,.59.92,1,1,0,0,1-1,1,4.08,4.08,0,0,1-2.09-.56,8.65,8.65,0,0,1-1.55-1.4,4,4,0,0,1-.68-2.48,9.72,9.72,0,0,1,.36-3.16c0-.08,0-.16-.12-.16s-.12,0-.24.16c-1.64,2.16-2.72,3.52-3.68,4.88a8.92,8.92,0,0,1-1.72,1.76,2.29,2.29,0,0,1-1.48.44,7.57,7.57,0,0,1-2.88-1.84,2.25,2.25,0,0,1-.28-1.16,10.53,10.53,0,0,1,.48-2.4,31.42,31.42,0,0,1,2-5.44A43.4,43.4,0,0,1,330.15,275.2Z"
              transform="translate(-275.88 -110.09)"/>
        <path class="cls-2"
              d="M348.11,293.72a3.85,3.85,0,0,1-1.52-.28,27,27,0,0,1-2.56-1.12,4.89,4.89,0,0,1-2-2.76,12,12,0,0,1-.48-3.08,4.59,4.59,0,0,1,.2-1.32c1.12-4.08,3.84-7.6,6.88-10.84a6.27,6.27,0,0,1,6.71-1.36,2.49,2.49,0,0,1,1.28,2.48,6.42,6.42,0,0,1-.92,2.88,7.8,7.8,0,0,1-1.28,1.88c-2.75,3.12-5.87,6.6-9.27,8.48-.2.12-.24.2-.24.32a2.44,2.44,0,0,0,1,1.68,2.49,2.49,0,0,0,1.24.32c.68,0,1.28-.16,3.08-1.12,2.75-1.48,4.43-3.64,6.83-5.16a1.29,1.29,0,0,1,.8-.28c.24,0,.8.4.8.8a4.35,4.35,0,0,1,0,.52.66.66,0,0,1-.2.56c-1.92,1.64-2.76,3.64-8.83,7A2.26,2.26,0,0,1,348.11,293.72Zm5.16-18.28c0-.32,0-.48-.25-.48a1.57,1.57,0,0,0-.83.36,3.43,3.43,0,0,0-.8.52c-2.6,2.32-5.4,5.6-6.28,9.16,0,.16,0,.2.08.2a.53.53,0,0,0,.28-.12,38.24,38.24,0,0,0,6.11-6.16c.61-.72.44-.84,1-1.64A3.22,3.22,0,0,0,353.27,275.44Z"
              transform="translate(-275.88 -110.09)"/>
        <path class="cls-2"
              d="M392,265.52c-.36.52-.48,1-.92,1.72-2.32,3.72-5.36,7.76-6.68,11.4l-.64,1.76c-2.4,6.72-3,9.64-3,11.08a9.36,9.36,0,0,0,.32,2.24c0,.12,0,.16-.16.28-.56.56-.44.84-1.44.84-.36,0-1.4-.52-1.44-.76a15,15,0,0,1-.24-2.6,20.72,20.72,0,0,1,1-5.92,26.08,26.08,0,0,1,1.24-2.88s0-.08-.08-.08-.16.08-.4.36c-3.2,3.72-6.32,7.64-10.23,10a2.37,2.37,0,0,1-1.2.28,6.26,6.26,0,0,1-2.84-1.24,4.44,4.44,0,0,1-.68-2.28,9.69,9.69,0,0,1,1.4-4.28,25.62,25.62,0,0,1,8.43-9,6,6,0,0,1,2.88-.76,3,3,0,0,1,1.12.2,15.39,15.39,0,0,1,1.88.76c.2,0,.28,0,.32,0,4.16-4.52,5.88-9.6,9.32-14.11a.94.94,0,0,1,.92-.48c.52,0,2,.64,2,1.32A3.46,3.46,0,0,1,392,265.52ZM378.1,278a2,2,0,0,0-1,.2,20.76,20.76,0,0,0-9.31,10.6,2.44,2.44,0,0,0-.12.52c0,.4.08.92.28.92a.57.57,0,0,0,.4-.16c.24-.2.48-.2.84-.48a50.82,50.82,0,0,0,9-9.76c.48-.64.84-.76.84-1.44C379,278.2,378.74,278,378.1,278Z"
              transform="translate(-275.88 -110.09)"/>
        <path class="cls-2"
              d="M393.22,291.84a6.45,6.45,0,0,1-4.12,1.92c-1.2,0-2.56-1.68-3-3.16a6.42,6.42,0,0,1-.19-1.68,9.23,9.23,0,0,1,.63-3.24c.29-.76.44-1.44.69-2,1.23-2.92,2.39-5.8,3.87-8.88a2.06,2.06,0,0,1,2-1.08,2,2,0,0,1,1.2.32.68.68,0,0,1,.32.64c0,2.12-1.64,3.12-2.56,5.08-.68,1.48-1.8,4.2-2.36,5.68a13.68,13.68,0,0,0-1,3.92c0,.36,0,1.28.72,1.28.88,0,1.32-.24,2.92-1.36,1-.68,1.24-.88,1.88-.88a1.72,1.72,0,0,1,1,.28.63.63,0,0,1,.24.56c0,.44-.24.68-.64,1.08Zm5.56-25a1.16,1.16,0,0,1-.2.72c-.72.88-1.68,2-2.56,2a1.88,1.88,0,0,1-1.6-.8,3.19,3.19,0,0,1-.28-1.36,2.79,2.79,0,0,1,.52-1.68,2.53,2.53,0,0,1,2-.68,2.61,2.61,0,0,1,1.68.52A1.87,1.87,0,0,1,398.78,266.88Z"
              transform="translate(-275.88 -110.09)"/>
        <path class="cls-2"
              d="M408.3,285.56c.56,0,1.32.92,1.32,1s-.16.24-.16.4a.43.43,0,0,1-.32.48,20.89,20.89,0,0,0-4.4,3c-2.24,1.8-4.24,3-5.92,3a5.32,5.32,0,0,1-4-2,4.1,4.1,0,0,1-.48-1.88,11.86,11.86,0,0,1,.64-3,8,8,0,0,1,.48-1.56c2.08-4.16,5-9,8.32-10.72a1.09,1.09,0,0,1,.64-.12,6.39,6.39,0,0,1,4.16,1.68c.16.16.16.24.16.56a2.45,2.45,0,0,0,.08.6.9.9,0,0,1,0,.28c-.12.48-1.36,2.36-1.36,3.76,0,.32-.24.6-.76.6a1.22,1.22,0,0,1-.8-.28l-1-.76a1.06,1.06,0,0,1-.44-.88c0-.8.88-1.76.88-2.4,0-.16-.12-.4-.32-.4s-.32.08-.64.4a31.64,31.64,0,0,0-4.88,6.44,17.52,17.52,0,0,0-2.32,6.12.75.75,0,0,0,.68.84c1.84,0,3.72-1,5.68-2.52C405.18,287,407.18,285.56,408.3,285.56Z"
              transform="translate(-275.88 -110.09)"/>
        <path class="cls-2"
              d="M420.38,294.56a3.17,3.17,0,0,1-1.16-.28c-1.52-.56-2.16-1.84-2.16-3.8a16.09,16.09,0,0,1,.76-4.48,38.32,38.32,0,0,1,1.48-4.12,1.51,1.51,0,0,0,.16-.48.09.09,0,0,0-.08-.08c-.08,0-.24.12-.52.44-2.72,3.12-5.48,7.76-7.84,10.52a1.33,1.33,0,0,1-.44.4,3.13,3.13,0,0,1-1.52.52,5.06,5.06,0,0,1-2.08-1.12.67.67,0,0,1-.16-.44c0-.44.2-.4.36-1.08,1.24-5.32,4.16-11.08,7.56-17.84,1.68-3.36,3.92-7,5.88-11a1,1,0,0,1,1-.56c.4,0,.64.08.84.08a1.84,1.84,0,0,1,1.12.6,1.15,1.15,0,0,1,.36,1c0,1-.84,1.67-1.88,2.95-.36.44-.44.64-.76,1.08-3.6,5-6.76,13.12-9.76,19.48a5.52,5.52,0,0,0-.36.8s0,.08.08.08.08,0,.28-.32a111.83,111.83,0,0,1,9.08-11.12c.56-.6.76-.8,1.12-.92a3.49,3.49,0,0,1,.92-.2,5.72,5.72,0,0,1,1.48.28,1,1,0,0,1,.6.76,6.12,6.12,0,0,1-1.2,3.2,16.4,16.4,0,0,0-1,2.44,24,24,0,0,0-2.08,8.56c0,1.92.4,2.32,1,2.64a6.12,6.12,0,0,0,1,.24.38.38,0,0,1,.28.32,1.71,1.71,0,0,1-.2.52,1.21,1.21,0,0,1-.76.56A5.48,5.48,0,0,1,420.38,294.56Z"
              transform="translate(-275.88 -110.09)"/>
        <path class="cls-2"
              d="M445.06,288.92c0,.12,0,.16.16.16a46.68,46.68,0,0,1,6.68-4.72c.68-.4.76-.4,1-.4a1.6,1.6,0,0,1,1,.4.88.88,0,0,1,.24.6.83.83,0,0,1-.32.68c-7.4,5.56-11.32,9.16-13.36,14-1.36,3.28-2.84,6.72-3.32,7.6-.84,1.56-1.36,1.68-2.88,1.68-.76,0-1.88-.4-2.08-1.16a3.33,3.33,0,0,1-.12-.88c0-1,.72-2.32,2.72-5.4,3-4.68,3.56-3.6,7.92-13.68v-.08a.09.09,0,0,0-.08-.08.15.15,0,0,0-.12,0c-1.8,1.72-3.52,3.64-5.52,3.64a3.06,3.06,0,0,1-1.2-.24,8.56,8.56,0,0,1-2.4-1.84c-.2-.2-.28-.32-.28-1.16a8,8,0,0,1,1.16-3.72,33.19,33.19,0,0,1,3.92-5.2c4.2-4.72,7.48-5.08,7.64-5.08a5.08,5.08,0,0,1,4.12,1.72,2.15,2.15,0,0,1,.44,1.4,3,3,0,0,1-.32,1.56C445.9,286.2,445.06,288.48,445.06,288.92Zm2.56-11.64c0-.08-.08-.16-.08-.24s0-.24-.4-.4a1.87,1.87,0,0,0-.68-.12,3,3,0,0,0-1.84.84c-.8.64-1.12.68-1.68,1.2-2.16,2-5.28,5.76-6.12,7.72a6.22,6.22,0,0,0-.48,1.52c0,.16.32.32.48.32a1.38,1.38,0,0,0,.8-.2c3.6-2.28,7.44-6.68,9.88-10.36A.53.53,0,0,0,447.62,277.28Z"
              transform="translate(-275.88 -110.09)"/>
        <path class="cls-2"
              d="M458.1,293.72a3.85,3.85,0,0,1-1.52-.28,27,27,0,0,1-2.56-1.12,4.89,4.89,0,0,1-2-2.76,12,12,0,0,1-.48-3.08,4.59,4.59,0,0,1,.2-1.32c1.12-4.08,3.84-7.6,6.88-10.84a6.29,6.29,0,0,1,6.72-1.36,2.49,2.49,0,0,1,1.28,2.48,6.42,6.42,0,0,1-.92,2.88,7.8,7.8,0,0,1-1.28,1.88c-2.76,3.12-5.88,6.6-9.28,8.48-.2.12-.24.2-.24.32a2.44,2.44,0,0,0,1,1.68,2.49,2.49,0,0,0,1.24.32c.68,0,1.28-.16,3.08-1.12,2.76-1.48,4.44-3.64,6.84-5.16a1.29,1.29,0,0,1,.8-.28c.24,0,.8.4.8.8a4.35,4.35,0,0,1,0,.52.66.66,0,0,1-.2.56c-1.92,1.64-2.76,3.64-8.84,7A2.26,2.26,0,0,1,458.1,293.72Zm5.16-18.28c0-.32,0-.48-.24-.48a1.6,1.6,0,0,0-.84.36,3.43,3.43,0,0,0-.8.52c-2.6,2.32-5.4,5.6-6.28,9.16,0,.16,0,.2.08.2a.53.53,0,0,0,.28-.12,38.72,38.72,0,0,0,6.12-6.16c.6-.72.44-.84,1-1.64A3.2,3.2,0,0,0,463.26,275.44Z"
              transform="translate(-275.88 -110.09)"/>
        <path class="cls-2"
              d="M478.46,294.56a3.17,3.17,0,0,1-1.16-.28c-1.52-.56-2.16-1.84-2.16-3.8a16.09,16.09,0,0,1,.76-4.48,38.32,38.32,0,0,1,1.48-4.12,1.51,1.51,0,0,0,.16-.48.09.09,0,0,0-.08-.08c-.08,0-.24.12-.52.44-2.72,3.12-5.48,7.76-7.84,10.52a1.33,1.33,0,0,1-.44.4,3.13,3.13,0,0,1-1.52.52,5.06,5.06,0,0,1-2.08-1.12.67.67,0,0,1-.16-.44c0-.44.2-.4.36-1.08,1.24-5.32,4.16-11.08,7.56-17.84,1.68-3.36,3.92-7,5.88-11a1,1,0,0,1,1-.56c.4,0,.64.08.84.08a1.84,1.84,0,0,1,1.12.6,1.15,1.15,0,0,1,.36,1c0,1-.84,1.67-1.88,2.95-.36.44-.44.64-.76,1.08-3.6,5-6.76,13.12-9.76,19.48a5.52,5.52,0,0,0-.36.8s0,.08.08.08.08,0,.28-.32a111.83,111.83,0,0,1,9.08-11.12c.56-.6.76-.8,1.12-.92a3.49,3.49,0,0,1,.92-.2,5.72,5.72,0,0,1,1.48.28,1,1,0,0,1,.6.76,6.12,6.12,0,0,1-1.2,3.2,16.4,16.4,0,0,0-1,2.44,24,24,0,0,0-2.08,8.56c0,1.92.4,2.32,1,2.64a6.12,6.12,0,0,0,1,.24.38.38,0,0,1,.28.32,1.71,1.71,0,0,1-.2.52,1.21,1.21,0,0,1-.76.56A5.48,5.48,0,0,1,478.46,294.56Z"
              transform="translate(-275.88 -110.09)"/>
        <path class="cls-2"
              d="M491.46,276.28a17.75,17.75,0,0,0-.92,2.48c0,.08.08.12.16.12a9.39,9.39,0,0,0,1-.16,19.36,19.36,0,0,0,5.36-2,1.24,1.24,0,0,1,.44-.2c.68,0,2,.56,2,1a1.86,1.86,0,0,1-1.32,1.52c-1.08.44-1.08.56-1.8.84-2,.76-5.36,1.52-6.2,1.8a1.3,1.3,0,0,0-.76.6,8.45,8.45,0,0,0-.68,1.92c-.12.44-.36.84-.44,1.28-.24,1.32-1.6,4.72-1.84,6.72a2.69,2.69,0,0,1-1,1.68,1.61,1.61,0,0,1-.6.12,2.78,2.78,0,0,1-1.44-.44,1.15,1.15,0,0,1-.44-1,4.31,4.31,0,0,1,.16-1.2c1-3,1.72-6.44,3-9.52a1,1,0,0,0,.08-.28c0-.08,0-.16-.2-.24-1.44-.72-1.68-1.76-2.6-2.52a.55.55,0,0,1-.2-.48c0-.28.16-.36.48-.52a1.58,1.58,0,0,1,.8-.2c.88,0,1.88.64,2.6.64a.65.65,0,0,0,.68-.56c.12-.44.32-1,.64-1.88,1-2.44,2-5.56,3.4-8.48.24-.52.28-.52.44-.52.64,0,.72-.2,1.12-.2a4.71,4.71,0,0,1,1.52.32c.2.08.36.16.36.28a2.38,2.38,0,0,1,0,.44C494.66,270.84,492.74,273.56,491.46,276.28Z"
              transform="translate(-275.88 -110.09)"/>
        <path class="cls-2"
              d="M505.9,268.24a1,1,0,0,1,1-.76c.12,0,.28,0,.52,0a1.56,1.56,0,0,1,1.64,1.84c0,1.12-.88,1.72-2.08,3.72l-2.48,4.2a1.73,1.73,0,0,1-1.28.64,3.59,3.59,0,0,1-1.32-.28,1,1,0,0,1-.6-1c0-.16,0-.24.24-.6l2.48-4.32C504.34,271.12,505.78,268.56,505.9,268.24Z"
              transform="translate(-275.88 -110.09)"/>
        <path class="cls-2"
              d="M518.38,277.24a5.28,5.28,0,0,1-1.16,3.32c-.32.4-.36.44-.56.44a2.7,2.7,0,0,1-1.4-.52,1.52,1.52,0,0,1-.6-1.28.64.64,0,0,1,.12-.32,3.58,3.58,0,0,0,.68-1.84,2.55,2.55,0,0,0-.28-1.08,1.19,1.19,0,0,0-.88-.56,8.12,8.12,0,0,0-2.44,4.12,6.45,6.45,0,0,0-.08,1c0,.24.2,2,.28,2.56.36,3,1.28,7.48,1.28,9.12a1,1,0,0,1-.32.72,3.64,3.64,0,0,1-2.52,1.44,3.26,3.26,0,0,1-1-.16,12.51,12.51,0,0,1-5.84-5.36,1.69,1.69,0,0,1-.24-.6,1.58,1.58,0,0,1,1.44-1.48c.8,0,1.16.08,1.52.56.92,1.24,1.4,2.76,2.6,3.84.4.36.6.44.8.44a.37.37,0,0,0,.4-.32,6.09,6.09,0,0,0-.2-1.24c-.56-2.64-1.28-8.64-1.28-9.44a10.88,10.88,0,0,1,1.44-4.88,5.06,5.06,0,0,1,3.56-2.56c2.2,0,3.08.56,3.92,1.44A4.23,4.23,0,0,1,518.38,277.24Z"
              transform="translate(-275.88 -110.09)"/>
        <path class="cls-2"
              d="M532.94,275.2c.32-.48.28-.56.64-.88a2.09,2.09,0,0,1,1.4-.4c.92,0,1.44.24,1.6.6a2.43,2.43,0,0,1,.2.72,2.88,2.88,0,0,1-.88,1.88,18.51,18.51,0,0,0-2.56,3.6A62,62,0,0,0,530.5,287a26.33,26.33,0,0,0-.8,2.8c0,.16,0,.4.12.4s.4-.12.68-.52c5.4-7.68,8.36-9.28,9.24-11.16.72-1.52.88-1.64,1.4-1.64s.8.36,1.44.4a1.09,1.09,0,0,1,.8,1.08,3.16,3.16,0,0,1-.4,1,23,23,0,0,0-2.8,5.92,18.53,18.53,0,0,0-.48,3.6,7.34,7.34,0,0,0,.32,1.72c.12.72,1.12,1.24,1.4,1.44a1.2,1.2,0,0,1,.6.92,1,1,0,0,1-1,1,4.07,4.07,0,0,1-2.08-.56,8.36,8.36,0,0,1-1.56-1.4,4,4,0,0,1-.68-2.48,9.72,9.72,0,0,1,.36-3.16c0-.08,0-.16-.12-.16s-.12,0-.24.16c-1.64,2.16-2.72,3.52-3.68,4.88a8.92,8.92,0,0,1-1.72,1.76,2.29,2.29,0,0,1-1.48.44,7.57,7.57,0,0,1-2.88-1.84,2.25,2.25,0,0,1-.28-1.16,10.53,10.53,0,0,1,.48-2.4,31.42,31.42,0,0,1,2-5.44A43.4,43.4,0,0,1,532.94,275.2Z"
              transform="translate(-275.88 -110.09)"/>
        <path class="cls-2"
              d="M551.5,291.84a6.45,6.45,0,0,1-4.12,1.92c-1.2,0-2.56-1.68-3-3.16a6,6,0,0,1-.2-1.68,9,9,0,0,1,.64-3.24c.28-.76.44-1.44.68-2,1.24-2.92,2.4-5.8,3.88-8.88a2.06,2.06,0,0,1,2-1.08,2,2,0,0,1,1.2.32.68.68,0,0,1,.32.64c0,2.12-1.64,3.12-2.56,5.08-.68,1.48-1.8,4.2-2.36,5.68a13.68,13.68,0,0,0-1,3.92c0,.36,0,1.28.72,1.28.88,0,1.32-.24,2.92-1.36,1-.68,1.24-.88,1.88-.88a1.72,1.72,0,0,1,1,.28.63.63,0,0,1,.24.56c0,.44-.24.68-.64,1.08Zm5.56-25a1.16,1.16,0,0,1-.2.72c-.72.88-1.68,2-2.56,2a1.88,1.88,0,0,1-1.6-.8,3.19,3.19,0,0,1-.28-1.36,2.79,2.79,0,0,1,.52-1.68,2.53,2.53,0,0,1,2-.68,2.61,2.61,0,0,1,1.68.52A1.87,1.87,0,0,1,557.06,266.88Z"
              transform="translate(-275.88 -110.09)"/>
        <path class="cls-2"
              d="M566.58,285.56c.56,0,1.32.92,1.32,1s-.16.24-.16.4a.43.43,0,0,1-.32.48,20.89,20.89,0,0,0-4.4,3c-2.24,1.8-4.24,3-5.92,3a5.32,5.32,0,0,1-4-2,4.1,4.1,0,0,1-.48-1.88,11.86,11.86,0,0,1,.64-3,8,8,0,0,1,.48-1.56c2.08-4.16,5-9,8.32-10.72a1.09,1.09,0,0,1,.64-.12,6.39,6.39,0,0,1,4.16,1.68c.16.16.16.24.16.56a2.45,2.45,0,0,0,.08.6.9.9,0,0,1,0,.28c-.12.48-1.36,2.36-1.36,3.76,0,.32-.24.6-.76.6a1.22,1.22,0,0,1-.8-.28l-1-.76a1.06,1.06,0,0,1-.44-.88c0-.8.88-1.76.88-2.4,0-.16-.12-.4-.32-.4s-.32.08-.64.4a31.64,31.64,0,0,0-4.88,6.44,17.52,17.52,0,0,0-2.32,6.12.75.75,0,0,0,.68.84c1.84,0,3.72-1,5.68-2.52C563.46,287,565.46,285.56,566.58,285.56Z"
              transform="translate(-275.88 -110.09)"/>
        <path class="cls-2"
              d="M578.66,294.56a3.17,3.17,0,0,1-1.16-.28c-1.52-.56-2.16-1.84-2.16-3.8a16.09,16.09,0,0,1,.76-4.48,38.32,38.32,0,0,1,1.48-4.12,1.51,1.51,0,0,0,.16-.48.09.09,0,0,0-.08-.08c-.08,0-.24.12-.52.44-2.72,3.12-5.48,7.76-7.84,10.52a1.33,1.33,0,0,1-.44.4,3.13,3.13,0,0,1-1.52.52,5.06,5.06,0,0,1-2.08-1.12.67.67,0,0,1-.16-.44c0-.44.2-.4.36-1.08,1.24-5.32,4.16-11.08,7.56-17.84,1.68-3.36,3.92-7,5.88-11a1,1,0,0,1,1-.56c.4,0,.64.08.84.08a1.84,1.84,0,0,1,1.12.6,1.15,1.15,0,0,1,.36,1c0,1-.84,1.67-1.88,2.95-.36.44-.44.64-.76,1.08-3.6,5-6.76,13.12-9.76,19.48a5.52,5.52,0,0,0-.36.8s0,.08.08.08.08,0,.28-.32a111.83,111.83,0,0,1,9.08-11.12c.56-.6.76-.8,1.12-.92a3.49,3.49,0,0,1,.92-.2,5.72,5.72,0,0,1,1.48.28,1,1,0,0,1,.6.76,6.12,6.12,0,0,1-1.2,3.2,16.4,16.4,0,0,0-1,2.44,24,24,0,0,0-2.08,8.56c0,1.92.4,2.32,1,2.64a6.12,6.12,0,0,0,1,.24.38.38,0,0,1,.28.32,1.71,1.71,0,0,1-.2.52,1.21,1.21,0,0,1-.76.56A5.48,5.48,0,0,1,578.66,294.56Z"
              transform="translate(-275.88 -110.09)"/>
        <path class="cls-2"
              d="M591.66,276.28a17.75,17.75,0,0,0-.92,2.48c0,.08.08.12.16.12a9.39,9.39,0,0,0,1-.16,19.36,19.36,0,0,0,5.36-2,1.24,1.24,0,0,1,.44-.2c.68,0,2,.56,2,1a1.86,1.86,0,0,1-1.32,1.52c-1.08.44-1.08.56-1.8.84-2,.76-5.36,1.52-6.2,1.8a1.3,1.3,0,0,0-.76.6,8.45,8.45,0,0,0-.68,1.92c-.12.44-.36.84-.44,1.28-.24,1.32-1.6,4.72-1.84,6.72a2.69,2.69,0,0,1-1,1.68,1.61,1.61,0,0,1-.6.12,2.78,2.78,0,0,1-1.44-.44,1.15,1.15,0,0,1-.44-1,4.31,4.31,0,0,1,.16-1.2c1-3,1.72-6.44,3-9.52a1,1,0,0,0,.08-.28c0-.08,0-.16-.2-.24-1.44-.72-1.68-1.76-2.6-2.52a.55.55,0,0,1-.2-.48c0-.28.16-.36.48-.52a1.58,1.58,0,0,1,.8-.2c.88,0,1.88.64,2.6.64a.65.65,0,0,0,.68-.56c.12-.44.32-1,.64-1.88,1-2.44,2-5.56,3.4-8.48.24-.52.28-.52.44-.52.64,0,.72-.2,1.12-.2a4.71,4.71,0,0,1,1.52.32c.2.08.36.16.36.28a2.38,2.38,0,0,1,0,.44C594.86,270.84,592.94,273.56,591.66,276.28Z"
              transform="translate(-275.88 -110.09)"/>
        <path class="cls-2"
              d="M601.66,290.52a3.78,3.78,0,0,1-.28,1.52c-.28.72-.64,1.56-1.28,1.56-.28,0-.6,0-1.56,0-.64,0-1.24-1.76-1.24-2.48a1.85,1.85,0,0,1,.36-1.12c.16-.28.12-1,.84-1,1.12,0,1.52.76,2.6.84A.55.55,0,0,1,601.66,290.52Zm6.2-21.36c0,1.48-.88,2.6-1.24,3.76-1.4,4.4-2.24,8.48-4,12.56-.16.36-.24.48-.52.48-.56,0-.8-.28-.84-.48-.2-1-1.12-1.16-1.12-1.72a1.6,1.6,0,0,1,.12-.72,9.89,9.89,0,0,0,.44-1.72c.92-3.88,2.08-6.92,2.68-10.88.2-1.28.52-3.2,1.72-3.2.32,0,.52.28.88.36.52.12.56.48.88.56C607.38,268.32,607.86,268.8,607.86,269.16Z"
              transform="translate(-275.88 -110.09)"/>
    </g>
</svg>